<mxfile host="app.diagrams.net" modified="2023-02-16T09:52:21.419Z" agent="5.0 (Macintosh; Intel Mac OS X 10_15_4) AppleWebKit/537.36 (KHTML, like Gecko) Chrome/105.0.0.0 Safari/537.36 Edg/105.0.1343.53" etag="xLL0TkyP31Wf5Z7AtdUV" version="20.8.20" type="github">
  <diagram name="第 1 页" id="zMkUeI1VbZoQxMKzUVVP">
    <mxGraphModel dx="953" dy="545" grid="1" gridSize="10" guides="1" tooltips="1" connect="1" arrows="1" fold="1" page="1" pageScale="1" pageWidth="827" pageHeight="1169" math="0" shadow="0">
      <root>
        <mxCell id="0" />
        <mxCell id="1" parent="0" />
        <mxCell id="S7uy7MupSvmrY36sA2id-11" value="行为轨迹" style="edgeStyle=orthogonalEdgeStyle;rounded=0;orthogonalLoop=1;jettySize=auto;html=1;exitX=0.25;exitY=1;exitDx=0;exitDy=0;entryX=0.19;entryY=-0.008;entryDx=0;entryDy=0;entryPerimeter=0;" parent="1" source="S7uy7MupSvmrY36sA2id-1" target="S7uy7MupSvmrY36sA2id-7" edge="1">
          <mxGeometry relative="1" as="geometry">
            <Array as="points">
              <mxPoint x="190" y="200" />
              <mxPoint x="190" y="265" />
              <mxPoint x="200" y="265" />
            </Array>
          </mxGeometry>
        </mxCell>
        <mxCell id="S7uy7MupSvmrY36sA2id-28" value="渠道归属" style="edgeStyle=orthogonalEdgeStyle;rounded=0;orthogonalLoop=1;jettySize=auto;html=1;exitX=0.5;exitY=1;exitDx=0;exitDy=0;" parent="1" source="S7uy7MupSvmrY36sA2id-1" target="S7uy7MupSvmrY36sA2id-27" edge="1">
          <mxGeometry relative="1" as="geometry" />
        </mxCell>
        <mxCell id="S7uy7MupSvmrY36sA2id-1" value="超A" style="rounded=0;whiteSpace=wrap;html=1;" parent="1" vertex="1">
          <mxGeometry x="160" y="160" width="200" height="40" as="geometry" />
        </mxCell>
        <mxCell id="S7uy7MupSvmrY36sA2id-6" value="触达" style="edgeStyle=orthogonalEdgeStyle;rounded=0;orthogonalLoop=1;jettySize=auto;html=1;exitX=0.5;exitY=0;exitDx=0;exitDy=0;entryX=0.8;entryY=1.013;entryDx=0;entryDy=0;entryPerimeter=0;" parent="1" source="S7uy7MupSvmrY36sA2id-2" target="S7uy7MupSvmrY36sA2id-3" edge="1">
          <mxGeometry relative="1" as="geometry" />
        </mxCell>
        <mxCell id="S7uy7MupSvmrY36sA2id-2" value="大地行" style="rounded=0;whiteSpace=wrap;html=1;" parent="1" vertex="1">
          <mxGeometry x="400" y="160" width="160" height="40" as="geometry" />
        </mxCell>
        <mxCell id="S7uy7MupSvmrY36sA2id-4" style="edgeStyle=orthogonalEdgeStyle;rounded=0;orthogonalLoop=1;jettySize=auto;html=1;exitX=0.19;exitY=1.038;exitDx=0;exitDy=0;exitPerimeter=0;entryX=0.5;entryY=0;entryDx=0;entryDy=0;" parent="1" source="S7uy7MupSvmrY36sA2id-3" target="S7uy7MupSvmrY36sA2id-1" edge="1">
          <mxGeometry relative="1" as="geometry" />
        </mxCell>
        <mxCell id="S7uy7MupSvmrY36sA2id-5" value="行为操作" style="edgeLabel;html=1;align=center;verticalAlign=middle;resizable=0;points=[];" parent="S7uy7MupSvmrY36sA2id-4" vertex="1" connectable="0">
          <mxGeometry x="-0.04" y="-1" relative="1" as="geometry">
            <mxPoint as="offset" />
          </mxGeometry>
        </mxCell>
        <mxCell id="S7uy7MupSvmrY36sA2id-3" value="客户" style="rounded=0;whiteSpace=wrap;html=1;" parent="1" vertex="1">
          <mxGeometry x="160" y="70" width="400" height="40" as="geometry" />
        </mxCell>
        <mxCell id="S7uy7MupSvmrY36sA2id-17" value="行为信息" style="edgeStyle=orthogonalEdgeStyle;rounded=0;orthogonalLoop=1;jettySize=auto;html=1;exitX=1;exitY=0.25;exitDx=0;exitDy=0;entryX=0;entryY=0.25;entryDx=0;entryDy=0;" parent="1" source="S7uy7MupSvmrY36sA2id-7" target="S7uy7MupSvmrY36sA2id-14" edge="1">
          <mxGeometry relative="1" as="geometry" />
        </mxCell>
        <mxCell id="ZqJuL_lO8UDY3aZGvRu--10" value="商机" style="edgeStyle=orthogonalEdgeStyle;rounded=0;orthogonalLoop=1;jettySize=auto;html=1;exitX=0.933;exitY=0;exitDx=0;exitDy=0;entryX=0.25;entryY=1;entryDx=0;entryDy=0;exitPerimeter=0;" edge="1" parent="1" source="S7uy7MupSvmrY36sA2id-7" target="S7uy7MupSvmrY36sA2id-2">
          <mxGeometry relative="1" as="geometry" />
        </mxCell>
        <mxCell id="S7uy7MupSvmrY36sA2id-7" value="" style="rounded=0;whiteSpace=wrap;html=1;" parent="1" vertex="1">
          <mxGeometry x="160" y="330" width="210" height="60" as="geometry" />
        </mxCell>
        <mxCell id="S7uy7MupSvmrY36sA2id-8" value="商机决策" style="rounded=0;whiteSpace=wrap;html=1;" parent="1" vertex="1">
          <mxGeometry x="165" y="340" width="60" height="30" as="geometry" />
        </mxCell>
        <mxCell id="S7uy7MupSvmrY36sA2id-9" value="活动决策与配置" style="rounded=0;whiteSpace=wrap;html=1;" parent="1" vertex="1">
          <mxGeometry x="235" y="340" width="60" height="30" as="geometry" />
        </mxCell>
        <mxCell id="S7uy7MupSvmrY36sA2id-10" value="行为统计" style="rounded=0;whiteSpace=wrap;html=1;" parent="1" vertex="1">
          <mxGeometry x="300" y="340" width="60" height="30" as="geometry" />
        </mxCell>
        <mxCell id="S7uy7MupSvmrY36sA2id-15" value="客户标签" style="edgeStyle=orthogonalEdgeStyle;rounded=0;orthogonalLoop=1;jettySize=auto;html=1;exitX=0.558;exitY=-0.017;exitDx=0;exitDy=0;entryX=0.675;entryY=1.038;entryDx=0;entryDy=0;entryPerimeter=0;exitPerimeter=0;" parent="1" source="S7uy7MupSvmrY36sA2id-14" target="S7uy7MupSvmrY36sA2id-2" edge="1">
          <mxGeometry relative="1" as="geometry" />
        </mxCell>
        <mxCell id="S7uy7MupSvmrY36sA2id-14" value="画像" style="rounded=0;whiteSpace=wrap;html=1;" parent="1" vertex="1">
          <mxGeometry x="440" y="330" width="120" height="60" as="geometry" />
        </mxCell>
        <mxCell id="S7uy7MupSvmrY36sA2id-19" value="客户、保单信息" style="edgeStyle=orthogonalEdgeStyle;rounded=0;orthogonalLoop=1;jettySize=auto;html=1;exitX=0.25;exitY=0;exitDx=0;exitDy=0;entryX=0.467;entryY=1.015;entryDx=0;entryDy=0;entryPerimeter=0;" parent="1" source="S7uy7MupSvmrY36sA2id-18" target="S7uy7MupSvmrY36sA2id-7" edge="1">
          <mxGeometry relative="1" as="geometry" />
        </mxCell>
        <mxCell id="S7uy7MupSvmrY36sA2id-23" style="edgeStyle=orthogonalEdgeStyle;rounded=0;orthogonalLoop=1;jettySize=auto;html=1;entryX=0.5;entryY=1;entryDx=0;entryDy=0;exitX=0.85;exitY=0;exitDx=0;exitDy=0;exitPerimeter=0;" parent="1" source="S7uy7MupSvmrY36sA2id-18" target="S7uy7MupSvmrY36sA2id-14" edge="1">
          <mxGeometry relative="1" as="geometry" />
        </mxCell>
        <mxCell id="S7uy7MupSvmrY36sA2id-26" value="客户、保单信息" style="edgeLabel;html=1;align=center;verticalAlign=middle;resizable=0;points=[];" parent="S7uy7MupSvmrY36sA2id-23" vertex="1" connectable="0">
          <mxGeometry x="0.1" y="-1" relative="1" as="geometry">
            <mxPoint y="1" as="offset" />
          </mxGeometry>
        </mxCell>
        <mxCell id="S7uy7MupSvmrY36sA2id-18" value="ECIF" style="rounded=0;whiteSpace=wrap;html=1;" parent="1" vertex="1">
          <mxGeometry x="160" y="440" width="400" height="40" as="geometry" />
        </mxCell>
        <mxCell id="S7uy7MupSvmrY36sA2id-22" style="edgeStyle=orthogonalEdgeStyle;rounded=0;orthogonalLoop=1;jettySize=auto;html=1;exitX=0.5;exitY=1;exitDx=0;exitDy=0;" parent="1" source="S7uy7MupSvmrY36sA2id-7" target="S7uy7MupSvmrY36sA2id-7" edge="1">
          <mxGeometry relative="1" as="geometry" />
        </mxCell>
        <mxCell id="S7uy7MupSvmrY36sA2id-27" value="网销等周边系统" style="rounded=0;whiteSpace=wrap;html=1;" parent="1" vertex="1">
          <mxGeometry x="215" y="240" width="90" height="40" as="geometry" />
        </mxCell>
        <mxCell id="ZqJuL_lO8UDY3aZGvRu--1" value="行为轨迹" style="endArrow=classic;html=1;rounded=0;exitX=0.5;exitY=1;exitDx=0;exitDy=0;entryX=0.471;entryY=0;entryDx=0;entryDy=0;entryPerimeter=0;" edge="1" parent="1" source="S7uy7MupSvmrY36sA2id-27" target="S7uy7MupSvmrY36sA2id-7">
          <mxGeometry width="50" height="50" relative="1" as="geometry">
            <mxPoint x="30" y="390" as="sourcePoint" />
            <mxPoint x="80" y="340" as="targetPoint" />
          </mxGeometry>
        </mxCell>
        <mxCell id="ZqJuL_lO8UDY3aZGvRu--14" value="客户标签" style="endArrow=classic;html=1;rounded=0;exitX=0;exitY=0.5;exitDx=0;exitDy=0;entryX=1;entryY=0.5;entryDx=0;entryDy=0;" edge="1" parent="1" source="S7uy7MupSvmrY36sA2id-14" target="S7uy7MupSvmrY36sA2id-7">
          <mxGeometry width="50" height="50" relative="1" as="geometry">
            <mxPoint x="390" y="300" as="sourcePoint" />
            <mxPoint x="440" y="250" as="targetPoint" />
          </mxGeometry>
        </mxCell>
        <mxCell id="ZqJuL_lO8UDY3aZGvRu--15" value="" style="endArrow=classic;html=1;rounded=0;exitX=0.75;exitY=0;exitDx=0;exitDy=0;entryX=0.79;entryY=1.013;entryDx=0;entryDy=0;entryPerimeter=0;" edge="1" parent="1" source="S7uy7MupSvmrY36sA2id-7" target="S7uy7MupSvmrY36sA2id-1">
          <mxGeometry width="50" height="50" relative="1" as="geometry">
            <mxPoint x="60" y="370" as="sourcePoint" />
            <mxPoint x="110" y="320" as="targetPoint" />
          </mxGeometry>
        </mxCell>
        <mxCell id="ZqJuL_lO8UDY3aZGvRu--17" value="活动策略、&lt;br&gt;配置" style="edgeLabel;html=1;align=center;verticalAlign=middle;resizable=0;points=[];" vertex="1" connectable="0" parent="ZqJuL_lO8UDY3aZGvRu--15">
          <mxGeometry x="-0.5134" relative="1" as="geometry">
            <mxPoint as="offset" />
          </mxGeometry>
        </mxCell>
        <mxCell id="ZqJuL_lO8UDY3aZGvRu--16" value="" style="endArrow=classic;html=1;rounded=0;entryX=0.119;entryY=1.088;entryDx=0;entryDy=0;entryPerimeter=0;" edge="1" parent="1" target="S7uy7MupSvmrY36sA2id-2">
          <mxGeometry width="50" height="50" relative="1" as="geometry">
            <mxPoint x="320" y="240" as="sourcePoint" />
            <mxPoint x="100" y="370" as="targetPoint" />
            <Array as="points">
              <mxPoint x="420" y="240" />
            </Array>
          </mxGeometry>
        </mxCell>
      </root>
    </mxGraphModel>
  </diagram>
</mxfile>
